# Blender v2.82 (sub 7) OBJ File: 'windsock.blend'
# www.blender.org
mtllib windsock.mtl
o windsockL_windsock
v 0.204860 -0.156559 0.164148
v 2.417726 -0.156559 0.164148
v 0.204860 -0.215048 0.003451
v 2.417726 -0.215048 0.003451
v 0.204860 -0.156559 -0.157246
v 2.417726 -0.156559 -0.157246
v 0.204860 -0.008460 -0.242751
v 2.417726 -0.008460 -0.242751
v 0.204860 0.159952 -0.213055
v 2.417726 0.159952 -0.213055
v 0.204860 0.269876 -0.082055
v 2.417726 0.269876 -0.082055
v 0.204860 0.269876 0.088955
v 2.417726 0.269876 0.088955
v 0.204860 0.159952 0.219957
v 2.417726 0.159952 0.219957
v 0.204860 -0.008460 0.249652
v 2.417726 -0.008460 0.249652
v 0.204860 20.034954 1.503454
v 0.204860 1.534952 1.503451
v 2.417726 20.034954 1.503454
v 2.417726 1.534952 1.503451
v 0.204860 20.034954 -1.496545
v 2.417726 20.034954 -1.496545
v 0.204860 17.784956 -14.996553
v 2.417726 17.784956 -14.996553
v 0.204860 14.784957 -14.996553
v 2.417726 14.784957 -14.996553
v 0.204860 12.534954 -1.496546
v 2.417726 12.534954 -1.496546
v 0.204860 -9.965046 -1.496550
v 2.417726 -9.965046 -1.496550
v 0.204860 -9.965046 1.503449
v 2.417726 -9.965046 1.503449
v 0.204860 5.145048 12.422115
v 0.204860 3.833040 12.771496
v 2.417726 5.145048 12.422115
v 2.417726 3.833040 12.771496
v 0.204860 2.488996 12.963809
v 2.417726 2.488996 12.963809
v 0.204860 1.131655 12.996379
v 2.417726 1.131655 12.996379
v 0.204860 -0.220065 12.868739
v 2.417726 -0.220065 12.868739
v 0.204860 -1.547321 12.582690
v 2.417726 -1.547321 12.582690
v 0.204860 -2.831614 12.142207
v 2.417726 -2.831614 12.142207
v 0.204860 -4.055040 11.553423
v 2.417726 -4.055040 11.553423
v 0.204860 -5.200548 10.824556
v 2.417726 -5.200548 10.824556
v 0.204860 -6.252168 9.965769
v 2.417726 -6.252168 9.965769
v 0.204860 -7.195249 8.989016
v 2.417726 -7.195249 8.989016
v 0.204860 -8.016629 7.907923
v 2.417726 -8.016629 7.907923
v 0.204860 -8.704877 6.737558
v 2.417726 -8.704877 6.737558
v 0.204860 -9.250394 5.494234
v 2.417726 -9.250394 5.494234
v 2.417726 -9.645566 4.195284
v 0.204860 -9.645566 4.195284
v 2.417726 -9.884899 2.858813
v 0.204860 -9.884899 2.858813
v 0.204860 1.534952 2.503451
v 2.417726 1.534952 2.503451
vt 0.423344 0.650038
vt 0.477177 0.650038
vt 0.423344 0.654308
vt 0.477177 0.654308
vt 0.423344 0.615872
vt 0.477177 0.615872
vt 0.423344 0.620143
vt 0.477177 0.620143
vt 0.423344 0.624413
vt 0.477177 0.624413
vt 0.423344 0.628684
vt 0.477177 0.628684
vt 0.423344 0.632955
vt 0.477177 0.632955
vt 0.423344 0.637226
vt 0.477177 0.637226
vt 0.423344 0.641496
vt 0.477177 0.641496
vt 0.423344 0.645767
vt 0.477177 0.645767
vt 0.423344 0.635090
vt 0.876029 0.635090
vt 0.423344 0.688923
vt 0.876029 0.688923
vt 0.423344 0.635090
vt 0.496752 0.635090
vt 0.423344 0.688923
vt 0.496752 0.688923
vt 0.423344 0.635090
vt 0.758239 0.635090
vt 0.423344 0.688923
vt 0.758239 0.688923
vt 0.423344 0.635090
vt 0.496752 0.635090
vt 0.423344 0.688923
vt 0.496752 0.688923
vt 0.423344 0.635090
vt 0.758239 0.635090
vt 0.423344 0.688923
vt 0.758239 0.688923
vt 0.423344 0.635090
vt 0.973907 0.635090
vt 0.423344 0.688923
vt 0.973907 0.688923
vt 0.423344 0.635090
vt 0.496752 0.635090
vt 0.423344 0.688923
vt 0.496752 0.688923
vt 0.448247 0.026578
vt 0.448247 0.059820
vt 0.394414 0.026578
vt 0.394414 0.059820
vt 0.448247 0.093062
vt 0.394414 0.093062
vt 0.448247 0.126304
vt 0.394414 0.126304
vt 0.448247 0.159547
vt 0.394414 0.159547
vt 0.448247 0.192789
vt 0.394414 0.192789
vt 0.448247 0.226031
vt 0.394414 0.226031
vt 0.448247 0.259273
vt 0.394414 0.259273
vt 0.448247 0.292516
vt 0.394414 0.292516
vt 0.448247 0.325758
vt 0.394414 0.325758
vt 0.448247 0.359000
vt 0.394414 0.359000
vt 0.448247 0.392243
vt 0.394414 0.392243
vt 0.448247 0.425485
vt 0.394414 0.425485
vt 0.448247 0.458727
vt 0.394414 0.458727
vt 0.394414 0.491970
vt 0.448247 0.491970
vt 0.394414 0.525212
vt 0.448247 0.525212
vt 0.394414 0.558454
vt 0.448247 0.558454
vt 0.423344 0.635090
vt 0.681625 0.635090
vt 0.423344 0.688923
vt 0.681625 0.688923
vt 0.423344 0.635090
vt 0.447814 0.635090
vt 0.423344 0.688923
vt 0.447814 0.688923
vt 0.337701 0.720734
vt 0.299934 0.665584
vt 0.337884 0.696206
vt 0.304056 0.664857
vt 0.306745 0.661652
vt 0.426038 0.963438
vt 0.393934 0.971987
vt 0.361046 0.976692
vt 0.327832 0.977489
vt 0.294757 0.974366
vt 0.262279 0.967367
vt 0.230854 0.956589
vt 0.200917 0.942182
vt 0.172887 0.924347
vt 0.147154 0.903332
vt 0.124078 0.879432
vt 0.103979 0.852978
vt 0.087138 0.824339
vt 0.296311 0.663492
vt 0.073789 0.793916
vt 0.064120 0.762131
vt 0.058264 0.729429
vt 0.056302 0.696264
vt 0.294879 0.659560
vt 0.056302 0.622855
vt 0.296311 0.655627
vt 0.299934 0.653535
vt 0.606865 0.622855
vt 0.304056 0.654262
vt 0.306745 0.657467
vt 0.661921 0.292518
vt 0.735330 0.292518
vt 0.790386 0.622855
vt 0.790386 0.696264
vt 0.508987 0.696264
vt 0.546754 0.665584
vt 0.508987 0.720734
vt 0.550378 0.663492
vt 0.759551 0.824339
vt 0.772899 0.793916
vt 0.782569 0.762131
vt 0.788425 0.729429
vt 0.790386 0.696264
vt 0.551809 0.659560
vt 0.790386 0.622855
vt 0.550378 0.655627
vt 0.546754 0.653535
vt 0.056302 0.696264
vt 0.239823 0.622855
vt 0.539943 0.657467
vt 0.539943 0.661652
vt 0.056302 0.622855
vt 0.184767 0.292518
vt 0.111358 0.292518
vt 0.542633 0.654262
vt 0.742709 0.852978
vt 0.722611 0.879432
vt 0.699534 0.903332
vt 0.673801 0.924347
vt 0.645772 0.942182
vt 0.615835 0.956589
vt 0.584409 0.967367
vt 0.551932 0.974366
vt 0.518856 0.977489
vt 0.485642 0.976692
vt 0.452754 0.971987
vt 0.420650 0.963438
vt 0.542633 0.664857
vn 0.0000 0.7660 -0.6428
vn 0.0000 1.0000 0.0000
vn 0.0000 0.7660 0.6428
vn 0.0000 0.1736 0.9848
vn 0.0000 -0.5000 0.8660
vn 0.0000 -0.9397 0.3420
vn 0.0000 -0.9397 -0.3420
vn 0.0000 -0.5000 -0.8660
vn 0.0000 0.1736 -0.9848
vn 0.0000 -0.0000 1.0000
vn 0.0000 0.9864 -0.1644
vn 0.0000 0.0000 -1.0000
vn 0.0000 -0.9864 -0.1644
vn 0.0000 -1.0000 0.0000
vn 0.0000 0.3139 0.9495
vn 0.0000 0.1998 0.9798
vn 0.0000 0.0830 0.9966
vn 0.0000 -0.0351 0.9994
vn 0.0000 -0.1526 0.9883
vn 0.0000 -0.2680 0.9634
vn 0.0000 -0.3797 0.9251
vn 0.0000 -0.4861 0.8739
vn 0.0000 -0.5857 0.8105
vn 0.0000 -0.6771 0.7359
vn 0.0000 -0.7591 0.6509
vn 0.0000 -0.8306 0.5569
vn 0.0000 -0.8904 0.4551
vn 0.0000 -0.9379 0.3470
vn 0.0000 -0.9722 0.2341
vn 0.0000 -0.9930 0.1179
vn 0.0000 0.9397 -0.3420
vn 1.0000 -0.0000 0.0000
vn -1.0000 -0.0000 0.0000
usemtl Material.001
s 1
f 1/1/1 2/2/1 3/3/2
f 3/3/2 2/2/1 4/4/2
f 3/5/2 4/6/2 5/7/3
f 5/7/3 4/6/2 6/8/3
f 5/7/3 6/8/3 7/9/4
f 7/9/4 6/8/3 8/10/4
f 7/9/4 8/10/4 9/11/5
f 9/11/5 8/10/4 10/12/5
f 9/11/5 10/12/5 11/13/6
f 11/13/6 10/12/5 12/14/6
f 11/13/6 12/14/6 13/15/7
f 13/15/7 12/14/6 14/16/7
f 13/15/7 14/16/7 15/17/8
f 15/17/8 14/16/7 16/18/8
f 15/17/8 16/18/8 17/19/9
f 17/19/9 16/18/8 18/20/9
f 17/19/9 18/20/9 1/1/1
f 1/1/1 18/20/9 2/2/1
f 19/21/10 20/22/10 21/23/10
f 21/23/10 20/22/10 22/24/10
f 23/25/2 19/26/2 24/27/2
f 24/27/2 19/26/2 21/28/2
f 25/29/11 23/30/11 26/31/11
f 26/31/11 23/30/11 24/32/11
f 27/33/12 25/34/12 28/35/12
f 28/35/12 25/34/12 26/36/12
f 29/37/13 27/38/13 30/39/13
f 30/39/13 27/38/13 28/40/13
f 31/41/12 29/42/12 32/43/12
f 32/43/12 29/42/12 30/44/12
f 33/45/14 31/46/14 34/47/14
f 34/47/14 31/46/14 32/48/14
f 35/49/15 36/50/16 37/51/15
f 37/51/15 36/50/16 38/52/16
f 38/52/16 36/50/16 39/53/17
f 38/52/16 39/53/17 40/54/17
f 40/54/17 39/53/17 41/55/18
f 40/54/17 41/55/18 42/56/18
f 42/56/18 41/55/18 43/57/19
f 42/56/18 43/57/19 44/58/19
f 44/58/19 43/57/19 45/59/20
f 44/58/19 45/59/20 46/60/20
f 46/60/20 45/59/20 47/61/21
f 46/60/20 47/61/21 48/62/21
f 48/62/21 47/61/21 49/63/22
f 48/62/21 49/63/22 50/64/22
f 50/64/22 49/63/22 51/65/23
f 50/64/22 51/65/23 52/66/23
f 52/66/23 51/65/23 53/67/24
f 52/66/23 53/67/24 54/68/24
f 54/68/24 53/67/24 55/69/25
f 54/68/24 55/69/25 56/70/25
f 56/70/25 55/69/25 57/71/26
f 56/70/25 57/71/26 58/72/26
f 58/72/26 57/71/26 59/73/27
f 58/72/26 59/73/27 60/74/27
f 60/74/27 59/73/27 61/75/28
f 60/74/27 61/75/28 62/76/28
f 62/76/28 61/75/28 63/77/29
f 63/77/29 61/75/28 64/78/29
f 63/77/29 64/78/29 65/79/30
f 65/79/30 64/78/29 66/80/30
f 65/79/30 66/80/30 34/81/14
f 34/81/14 66/80/30 33/82/14
f 67/83/31 35/84/31 68/85/31
f 68/85/31 35/84/31 37/86/31
f 20/87/2 67/88/2 22/89/2
f 22/89/2 67/88/2 68/90/2
f 68/91/32 18/92/32 22/93/32
f 22/93/32 18/92/32 16/94/32
f 22/93/32 16/94/32 14/95/32
f 37/96/32 38/97/32 68/91/32
f 68/91/32 38/97/32 40/98/32
f 68/91/32 40/98/32 42/99/32
f 42/99/32 44/100/32 68/91/32
f 68/91/32 44/100/32 46/101/32
f 68/91/32 46/101/32 48/102/32
f 48/102/32 50/103/32 68/91/32
f 68/91/32 50/103/32 52/104/32
f 68/91/32 52/104/32 54/105/32
f 54/105/32 56/106/32 68/91/32
f 68/91/32 56/106/32 58/107/32
f 68/91/32 58/107/32 60/108/32
f 68/91/32 60/108/32 2/109/32
f 2/109/32 60/108/32 62/110/32
f 2/109/32 62/110/32 63/111/32
f 63/111/32 65/112/32 2/109/32
f 2/109/32 65/112/32 34/113/32
f 2/109/32 34/113/32 4/114/32
f 4/114/32 34/113/32 32/115/32
f 4/114/32 32/115/32 6/116/32
f 6/116/32 32/115/32 8/117/32
f 8/117/32 32/115/32 30/118/32
f 8/117/32 30/118/32 10/119/32
f 10/119/32 30/118/32 12/120/32
f 12/120/32 30/118/32 22/93/32
f 12/120/32 22/93/32 14/95/32
f 28/121/32 26/122/32 30/118/32
f 30/118/32 26/122/32 24/123/32
f 30/118/32 24/123/32 21/124/32
f 21/124/32 22/93/32 30/118/32
f 2/109/32 18/92/32 68/91/32
f 20/125/33 17/126/33 67/127/33
f 67/127/33 17/126/33 1/128/33
f 67/127/33 1/128/33 59/129/33
f 59/129/33 1/128/33 61/130/33
f 61/130/33 1/128/33 64/131/33
f 64/131/33 1/128/33 66/132/33
f 66/132/33 1/128/33 33/133/33
f 33/133/33 1/128/33 3/134/33
f 33/133/33 3/134/33 31/135/33
f 31/135/33 3/134/33 5/136/33
f 31/135/33 5/136/33 7/137/33
f 19/138/33 29/139/33 20/125/33
f 20/125/33 29/139/33 11/140/33
f 20/125/33 11/140/33 13/141/33
f 19/138/33 23/142/33 29/139/33
f 29/139/33 23/142/33 27/143/33
f 27/143/33 23/142/33 25/144/33
f 31/135/33 7/137/33 29/139/33
f 29/139/33 7/137/33 9/145/33
f 29/139/33 9/145/33 11/140/33
f 59/129/33 57/146/33 67/127/33
f 67/127/33 57/146/33 55/147/33
f 67/127/33 55/147/33 53/148/33
f 53/148/33 51/149/33 67/127/33
f 67/127/33 51/149/33 49/150/33
f 67/127/33 49/150/33 47/151/33
f 47/151/33 45/152/33 67/127/33
f 67/127/33 45/152/33 43/153/33
f 67/127/33 43/153/33 41/154/33
f 41/154/33 39/155/33 67/127/33
f 67/127/33 39/155/33 36/156/33
f 67/127/33 36/156/33 35/157/33
f 13/141/33 15/158/33 20/125/33
f 20/125/33 15/158/33 17/126/33
