# WaveFront *.obj file (generated by Autodesk ATF)

mtllib Mooring_zone.mtl

g Solid1

v -0.500000 0.000000 0.000000
v -0.500000 0.010000 0.000000
v -0.498602 0.000000 -0.037365
v -0.498602 0.010000 -0.037365
v -0.494415 0.000000 -0.074521
v -0.494415 0.010000 -0.074521
v -0.487464 0.000000 -0.111260
v -0.487464 0.010000 -0.111260
v -0.477786 0.000000 -0.147378
v -0.477786 0.010000 -0.147378
v -0.465437 0.000000 -0.182671
v -0.465437 0.010000 -0.182671
v -0.450484 0.000000 -0.216942
v -0.450484 0.010000 -0.216942
v -0.433013 0.000000 -0.250000
v -0.433013 0.010000 -0.250000
v -0.413119 0.000000 -0.281660
v -0.413119 0.010000 -0.281660
v -0.390916 0.000000 -0.311745
v -0.390916 0.010000 -0.311745
v -0.366526 0.000000 -0.340086
v -0.366526 0.010000 -0.340086
v -0.340086 0.000000 -0.366526
v -0.340086 0.010000 -0.366526
v -0.311745 0.000000 -0.390916
v -0.311745 0.010000 -0.390916
v -0.281660 0.000000 -0.413119
v -0.281660 0.010000 -0.413119
v -0.250000 0.000000 -0.433013
v -0.250000 0.010000 -0.433013
v -0.216942 0.000000 -0.450484
v -0.216942 0.010000 -0.450484
v -0.182671 0.000000 -0.465437
v -0.182671 0.010000 -0.465437
v -0.147378 0.000000 -0.477786
v -0.147378 0.010000 -0.477786
v -0.111260 0.000000 -0.487464
v -0.111260 0.010000 -0.487464
v -0.074521 0.000000 -0.494415
v -0.074521 0.010000 -0.494415
v -0.037365 0.000000 -0.498602
v -0.037365 0.010000 -0.498602
v 0.000000 0.000000 -0.500000
v 0.000000 0.000000 0.000000
v 0.000000 0.010000 -0.500000
v 0.000000 0.010000 0.000000
vt -0.000000 -3.989823 0.000000
vt -0.000000 -3.894827 0.000000
vt -0.000000 -3.799831 0.000000
vt -0.000000 -3.704835 0.000000
vt -0.000000 -3.609840 0.000000
vt -0.000000 -3.514844 0.000000
vt -0.000000 -3.419848 0.000000
vt -0.000000 -3.324852 0.000000
vt -0.000000 -3.229856 0.000000
vt -0.000000 -3.134861 0.000000
vt -0.000000 -3.039865 0.000000
vt -0.000000 -2.944869 0.000000
vt -0.000000 -2.849873 0.000000
vt -0.000000 -2.754878 0.000000
vt -0.000000 -2.659882 0.000000
vt -0.000000 -2.564886 0.000000
vt -0.000000 -2.469890 0.000000
vt -0.000000 -2.374894 0.000000
vt -0.000000 -2.279899 0.000000
vt -0.000000 -2.184903 0.000000
vt -0.000000 -2.089907 0.000000
vt -0.000000 -1.994911 0.000000
vt -0.025400 -1.994911 0.000000
vt -0.025400 -2.089907 0.000000
vt -0.025400 -2.184903 0.000000
vt -0.025400 -2.279899 0.000000
vt -0.025400 -2.374894 0.000000
vt -0.025400 -2.469890 0.000000
vt -0.025400 -2.564886 0.000000
vt -0.025400 -2.659882 0.000000
vt -0.025400 -2.754878 0.000000
vt -0.025400 -2.849873 0.000000
vt -0.025400 -2.944869 0.000000
vt -0.025400 -3.039865 0.000000
vt -0.025400 -3.134861 0.000000
vt -0.025400 -3.229856 0.000000
vt -0.025400 -3.324852 0.000000
vt -0.025400 -3.419848 0.000000
vt -0.025400 -3.514844 0.000000
vt -0.025400 -3.609840 0.000000
vt -0.025400 -3.704835 0.000000
vt -0.025400 -3.799831 0.000000
vt -0.025400 -3.894827 0.000000
vt -0.025400 -3.989823 0.000000
vt 0.000000 0.000000 0.000000
vt 1.270000 0.000000 0.000000
vt 1.270000 0.025400 0.000000
vt 0.000000 0.025400 0.000000
vt 0.000000 0.000000 0.000000
vt 1.270000 0.000000 0.000000
vt 1.270000 0.025400 0.000000
vt 0.000000 0.025400 0.000000
vt -0.499513 0.499513 0.000000
vt -0.499513 -0.770487 0.000000
vt -0.404606 -0.766936 0.000000
vt -0.310229 -0.756302 0.000000
vt -0.216911 -0.738646 0.000000
vt -0.125174 -0.714065 0.000000
vt -0.035530 -0.682697 0.000000
vt 0.051519 -0.644718 0.000000
vt 0.135487 -0.600339 0.000000
vt 0.215904 -0.549810 0.000000
vt 0.292319 -0.493413 0.000000
vt 0.364307 -0.431463 0.000000
vt 0.431463 -0.364307 0.000000
vt 0.493413 -0.292319 0.000000
vt 0.549810 -0.215904 0.000000
vt 0.600339 -0.135487 0.000000
vt 0.644718 -0.051519 0.000000
vt 0.682697 0.035530 0.000000
vt 0.714065 0.125174 0.000000
vt 0.738646 0.216911 0.000000
vt 0.756302 0.310229 0.000000
vt 0.766936 0.404606 0.000000
vt 0.770487 0.499513 0.000000
vt 0.499513 -0.770487 0.000000
vt 0.499513 0.499513 0.000000
vt -0.770487 0.499513 0.000000
vt -0.766936 0.404606 0.000000
vt -0.756302 0.310229 0.000000
vt -0.738646 0.216911 0.000000
vt -0.714065 0.125174 0.000000
vt -0.682697 0.035530 0.000000
vt -0.644718 -0.051519 0.000000
vt -0.600339 -0.135487 0.000000
vt -0.549810 -0.215904 0.000000
vt -0.493413 -0.292319 0.000000
vt -0.431463 -0.364307 0.000000
vt -0.364307 -0.431463 0.000000
vt -0.292319 -0.493413 0.000000
vt -0.215904 -0.549810 0.000000
vt -0.135487 -0.600339 0.000000
vt -0.051519 -0.644718 0.000000
vt 0.035530 -0.682697 0.000000
vt 0.125174 -0.714065 0.000000
vt 0.216911 -0.738646 0.000000
vt 0.310229 -0.756302 0.000000
vt 0.404606 -0.766936 0.000000
vn 0.000000 0.000000 -2.540000
vn -0.189814 0.000000 -2.532898
vn -0.378567 0.000000 -2.511630
vn -0.565203 0.000000 -2.476317
vn -0.748678 0.000000 -2.427155
vn -0.927966 0.000000 -2.364419
vn -1.102065 0.000000 -2.288461
vn -1.270000 0.000000 -2.199704
vn -1.430833 0.000000 -2.098646
vn -1.583664 0.000000 -1.985852
vn -1.727639 0.000000 -1.861952
vn -1.861952 0.000000 -1.727639
vn -1.985852 0.000000 -1.583664
vn -2.098646 0.000000 -1.430833
vn -2.199704 0.000000 -1.270000
vn -2.288461 0.000000 -1.102065
vn -2.364419 0.000000 -0.927966
vn -2.427155 0.000000 -0.748678
vn -2.476317 0.000000 -0.565203
vn -2.511630 0.000000 -0.378567
vn -2.532898 0.000000 -0.189814
vn -2.540000 0.000000 0.000000
vn -2.540000 0.000000 0.000000
vn -2.532898 0.000000 -0.189814
vn -2.511630 0.000000 -0.378567
vn -2.476317 0.000000 -0.565203
vn -2.427155 0.000000 -0.748678
vn -2.364419 0.000000 -0.927966
vn -2.288461 0.000000 -1.102065
vn -2.199704 0.000000 -1.270000
vn -2.098646 0.000000 -1.430833
vn -1.985852 0.000000 -1.583664
vn -1.861952 0.000000 -1.727639
vn -1.727639 0.000000 -1.861952
vn -1.583664 0.000000 -1.985852
vn -1.430833 0.000000 -2.098646
vn -1.270000 0.000000 -2.199704
vn -1.102065 0.000000 -2.288461
vn -0.927966 0.000000 -2.364419
vn -0.748678 0.000000 -2.427155
vn -0.565203 0.000000 -2.476317
vn -0.378567 0.000000 -2.511630
vn -0.189814 0.000000 -2.532898
vn 0.000000 0.000000 -2.540000
vn 2.540000 0.000000 0.000000
vn 2.540000 0.000000 0.000000
vn 2.540000 0.000000 0.000000
vn 2.540000 0.000000 0.000000
vn 0.000000 0.000000 2.540000
vn 0.000000 0.000000 2.540000
vn 0.000000 0.000000 2.540000
vn 0.000000 0.000000 2.540000
vn 0.000000 -2.540000 0.000000
vn 0.000000 -2.540000 0.000000
vn 0.000000 -2.540000 0.000000
vn 0.000000 -2.540000 0.000000
vn 0.000000 -2.540000 0.000000
vn 0.000000 -2.540000 0.000000
vn 0.000000 -2.540000 0.000000
vn 0.000000 -2.540000 0.000000
vn 0.000000 -2.540000 0.000000
vn 0.000000 -2.540000 0.000000
vn 0.000000 -2.540000 0.000000
vn 0.000000 -2.540000 0.000000
vn 0.000000 -2.540000 0.000000
vn 0.000000 -2.540000 0.000000
vn 0.000000 -2.540000 0.000000
vn 0.000000 -2.540000 0.000000
vn 0.000000 -2.540000 0.000000
vn 0.000000 -2.540000 0.000000
vn 0.000000 -2.540000 0.000000
vn 0.000000 -2.540000 0.000000
vn 0.000000 -2.540000 0.000000
vn 0.000000 -2.540000 0.000000
vn 0.000000 -2.540000 0.000000
vn 0.000000 2.540000 0.000000
vn 0.000000 2.540000 0.000000
vn 0.000000 2.540000 0.000000
vn 0.000000 2.540000 0.000000
vn 0.000000 2.540000 0.000000
vn 0.000000 2.540000 0.000000
vn 0.000000 2.540000 0.000000
vn 0.000000 2.540000 0.000000
vn 0.000000 2.540000 0.000000
vn 0.000000 2.540000 0.000000
vn 0.000000 2.540000 0.000000
vn 0.000000 2.540000 0.000000
vn 0.000000 2.540000 0.000000
vn 0.000000 2.540000 0.000000
vn 0.000000 2.540000 0.000000
vn 0.000000 2.540000 0.000000
vn 0.000000 2.540000 0.000000
vn 0.000000 2.540000 0.000000
vn 0.000000 2.540000 0.000000
vn 0.000000 2.540000 0.000000
vn 0.000000 2.540000 0.000000
vn 0.000000 2.540000 0.000000
vn 0.000000 2.540000 0.000000
usemtl 191,191,191
f 45/44/44 43/1/1 42/43/43
f 42/43/43 43/1/1 41/2/2
f 42/43/43 41/2/2 40/42/42
f 40/42/42 41/2/2 39/3/3
f 40/42/42 39/3/3 38/41/41
f 38/41/41 39/3/3 37/4/4
f 38/41/41 37/4/4 36/40/40
f 36/40/40 37/4/4 35/5/5
f 36/40/40 35/5/5 34/39/39
f 34/39/39 35/5/5 33/6/6
f 34/39/39 33/6/6 32/38/38
f 32/38/38 33/6/6 31/7/7
f 32/38/38 31/7/7 30/37/37
f 30/37/37 31/7/7 29/8/8
f 30/37/37 29/8/8 28/36/36
f 28/36/36 29/8/8 27/9/9
f 28/36/36 27/9/9 26/35/35
f 26/35/35 27/9/9 25/10/10
f 26/35/35 25/10/10 24/34/34
f 24/34/34 25/10/10 23/11/11
f 24/34/34 23/11/11 22/33/33
f 22/33/33 23/11/11 21/12/12
f 22/33/33 21/12/12 20/32/32
f 20/32/32 21/12/12 19/13/13
f 20/32/32 19/13/13 18/31/31
f 18/31/31 19/13/13 17/14/14
f 18/31/31 17/14/14 16/30/30
f 16/30/30 17/14/14 15/15/15
f 16/30/30 15/15/15 14/29/29
f 14/29/29 15/15/15 13/16/16
f 14/29/29 13/16/16 12/28/28
f 12/28/28 13/16/16 11/17/17
f 12/28/28 11/17/17 10/27/27
f 10/27/27 11/17/17 9/18/18
f 10/27/27 9/18/18 8/26/26
f 8/26/26 9/18/18 7/19/19
f 8/26/26 7/19/19 6/25/25
f 6/25/25 7/19/19 5/20/20
f 6/25/25 5/20/20 4/24/24
f 4/24/24 5/20/20 3/21/21
f 4/24/24 3/21/21 2/23/23
f 2/23/23 3/21/21 1/22/22
f 44/45/45 43/46/46 46/48/48
f 46/48/48 43/46/46 45/47/47
f 1/49/49 44/50/50 2/52/52
f 2/52/52 44/50/50 46/51/51
f 1/54/54 3/55/55 44/53/53
f 44/53/53 3/55/55 5/56/56
f 44/53/53 5/56/56 7/57/57
f 7/57/57 9/58/58 44/53/53
f 44/53/53 9/58/58 11/59/59
f 44/53/53 11/59/59 13/60/60
f 13/60/60 15/61/61 44/53/53
f 44/53/53 15/61/61 17/62/62
f 44/53/53 17/62/62 19/63/63
f 19/63/63 21/64/64 44/53/53
f 44/53/53 21/64/64 23/65/65
f 44/53/53 23/65/65 25/66/66
f 25/66/66 27/67/67 44/53/53
f 44/53/53 27/67/67 29/68/68
f 44/53/53 29/68/68 31/69/69
f 31/69/69 33/70/70 44/53/53
f 44/53/53 33/70/70 35/71/71
f 44/53/53 35/71/71 37/72/72
f 37/72/72 39/73/73 44/53/53
f 44/53/53 39/73/73 41/74/74
f 44/53/53 41/74/74 43/75/75
f 2/76/76 46/77/77 4/98/98
f 4/98/98 46/77/77 6/97/97
f 6/97/97 46/77/77 8/96/96
f 8/96/96 46/77/77 10/95/95
f 10/95/95 46/77/77 12/94/94
f 12/94/94 46/77/77 14/93/93
f 14/93/93 46/77/77 16/92/92
f 16/92/92 46/77/77 18/91/91
f 18/91/91 46/77/77 20/90/90
f 20/90/90 46/77/77 22/89/89
f 22/89/89 46/77/77 24/88/88
f 24/88/88 46/77/77 26/87/87
f 26/87/87 46/77/77 28/86/86
f 28/86/86 46/77/77 30/85/85
f 30/85/85 46/77/77 32/84/84
f 32/84/84 46/77/77 34/83/83
f 34/83/83 46/77/77 36/82/82
f 36/82/82 46/77/77 38/81/81
f 38/81/81 46/77/77 40/80/80
f 40/80/80 46/77/77 42/79/79
f 42/79/79 46/77/77 45/78/78

# 46 vertices
# 98 texture params
# 98 normals
# 88 facets

# 1 groups
